<?xml version="1.0" encoding="UTF-8"?>
<svg xmlns="http://www.w3.org/2000/svg" width="298" height="298">
 <defs>
  <linearGradient id="linearGradient-1" y2="87.5085594%" x2="162.989961%" y1="14.8317976%" x1="10.4317837%">
   <stop offset="0%" stop-color="#808DFF"/>
   <stop offset="100%" stop-color="#9FC4FF"/>
   <stop offset="100%" stop-color="#7174FF"/>
  </linearGradient>
  <linearGradient id="linearGradient-2" y2="57.6842448%" x2="121.235321%" y1="14.8317976%" x1="10.4317837%">
   <stop offset="0%" stop-color="#5270FF"/>
   <stop offset="100%" stop-color="#68A7FC"/>
   <stop offset="100%" stop-color="#7174FF"/>
  </linearGradient>
 </defs>

 <g>
  <title>Layer 1</title>
  <g fill-rule="evenodd" fill="none" id="Page-2">
   <g id="Artboard-Copy-21">
    <g id="Group-5">
     <path transform="rotate(-315 149 149) translate(-156 -156)" fill="url(#linearGradient-1)" id="Combined-Shape" d="m212.599976,194.999985l184.799988,0c9.720215,0 17.599976,7.879791 17.599976,17.600006l0,184.799973c0,9.720215 -7.879761,17.599976 -17.599976,17.599976l-184.799988,0c-9.7202,0 -17.599991,-7.879761 -17.599991,-17.599976l0,-184.799973c0,-9.720215 7.879791,-17.600006 17.599991,-17.600006zm33,33c-9.7202,0 -17.599991,7.879791 -17.599991,17.600006l0,118.799973c0,9.720215 7.879791,17.600006 17.599991,17.600006l118.799988,0c9.720215,0 17.600006,-7.879791 17.600006,-17.600006l0,-118.799973c0,-9.720215 -7.879791,-17.600006 -17.600006,-17.600006l-118.799988,0z"/>
     <rect rx="17.599999" height="87.999992" width="87.999992" y="261" x="261" transform="rotate(-315 149 149) translate(-156 -156)" opacity="0.491025" fill="url(#linearGradient-2)" id="Combined-Shape"/>
    </g>
   </g>
  </g>
 </g>
</svg>