<?xml version="1.0" encoding="UTF-8"?>
<svg height="300px" width="300px" xmlns="http://www.w3.org/2000/svg" xmlns:xlink="http://www.w3.org/1999/xlink" version="1.0" x="0px" y="0px" viewBox="0 0 100 100" enable-background="new 0 0 100 100" xml:space="preserve">
  <path d="M68.1281662,86.8230515C63.2828827,76.021431,50.1083298,69.1057739,50.1083298,69.1057739  c10.1462326-1.5640945,16.5055389,3.6344681,16.5055389,3.6344681C79.9399872,55.0872879,95.154747,55.2766457,95.154747,55.2766457  C75.5987091,67.5416794,68.1281662,86.8230515,68.1281662,86.8230515z"></path><path d="M71.3849716,21.1358738c-8.5657997-7.5704832-21.7014656-7.5622625-30.2597733,0.0166855  c-4.2887306,3.7979546-6.7929993,8.7872391-7.5166016,13.9753704c0,0-0.395153,3.2526627-0.0913124,6.926918  c-0.0868645,1.268055-0.5730667,2.9995117-1.7153645,4.1414566L8.0270882,69.9713211  c-4.0088167,4.0088196-4.181447,10.4012833-0.5211854,14.6214371l31.3547764-31.3550377  c0.8639069-0.8636093,2.3425598-0.7368393,3.0257759,0.3794746c0.4704971,0.7687569,0.2742729,1.7758904-0.3630447,2.4132118  L12.3702612,85.1837234l10.8037062,0.0590668l23.7749271-23.7748337c1.1434898-1.1437683,2.9815369-1.5206642,4.3508186-1.506485  c4.0166168,0.6462135,7.5153351,0.4973679,7.5153351,0.4973679c5.1068649-0.3105583,9.9037323-2.259903,13.5603485-5.9167213  l0.0665207-0.0577812C81.7179565,45.2083969,81.3622894,29.9538631,71.3849716,21.1358738z M67.0118637,36.8062057  c-2.6914825,3.9415665-8.3953285,3.9373627-11.0829391-0.0055046c-1.5024223-2.2041321-1.5040398-5.1928768-0.0037498-7.3984623  c2.6874504-3.9508362,8.4068031-3.9502316,11.0942421,0.0034904C68.5194778,31.6126118,68.5166397,34.6025276,67.0118637,36.8062057  z"></path>
</svg>
