<?xml version="1.0" encoding="UTF-8"?>
<svg width="40px" height="47px" viewBox="0 0 40 47" version="1.1" xmlns="http://www.w3.org/2000/svg" xmlns:xlink="http://www.w3.org/1999/xlink">
    <!-- Generator: Sketch 54.1 (76490) - https://sketchapp.com -->
    <title>download (11)</title>
    <desc>Created with Sketch.</desc>
    <g id="SDK" stroke="none" stroke-width="1" fill="none" fill-rule="evenodd">
        <g id="Desktop-HD-Copy-33" transform="translate(-678.000000, -444.000000)" fill-rule="nonzero">
            <g id="download-(11)" transform="translate(678.000000, 444.000000)">
                <g id="Group">
                    <path d="M10.9268293,0.244791667 L3.07317073,0.244791667 C1.6097561,0.244791667 0.43902439,1.41979167 0.43902439,2.88854167 L0.43902439,10.7708333 C0.43902439,12.2395833 1.6097561,13.4145833 3.07317073,13.4145833 L10.9268293,13.4145833 C12.3902439,13.4145833 13.5609756,12.2395833 13.5609756,10.7708333 L13.5609756,2.88854167 C13.5609756,1.41979167 12.3902439,0.244791667 10.9268293,0.244791667 Z M10.097561,5.92395833 L6.87804878,9.15520833 C6.68292683,9.35104167 6.43902439,9.44895833 6.19512195,9.44895833 C5.95121951,9.44895833 5.70731707,9.35104167 5.51219512,9.15520833 L3.90243902,7.53958333 C3.51219512,7.14791667 3.51219512,6.51145833 3.90243902,6.11979167 C4.29268293,5.728125 4.92682927,5.728125 5.31707317,6.11979167 L6.24390244,7.05 L8.73170732,4.553125 C9.12195122,4.16145833 9.75609756,4.16145833 10.1463415,4.553125 C10.4878049,4.89583333 10.4878049,5.53229167 10.097561,5.92395833 Z" id="Shape" fill="#191F34"></path>
                    <path d="M10.9268293,16.9395833 L3.07317073,16.9395833 C1.6097561,16.9395833 0.43902439,18.1145833 0.43902439,19.5833333 L0.43902439,27.465625 C0.43902439,28.934375 1.6097561,30.109375 3.07317073,30.109375 L10.9268293,30.109375 C12.3902439,30.109375 13.5609756,28.934375 13.5609756,27.465625 L13.5609756,19.534375 C13.5609756,18.1145833 12.3902439,16.9395833 10.9268293,16.9395833 Z M10.097561,22.5697917 L6.87804878,25.8010417 C6.68292683,25.996875 6.43902439,26.0947917 6.19512195,26.0947917 C5.95121951,26.0947917 5.70731707,25.996875 5.51219512,25.8010417 L3.90243902,24.1854167 C3.51219512,23.79375 3.51219512,23.1572917 3.90243902,22.765625 C4.29268293,22.3739583 4.92682927,22.3739583 5.31707317,22.765625 L6.24390244,23.6958333 L8.73170732,21.1989583 C9.12195122,20.8072917 9.75609756,20.8072917 10.1463415,21.1989583 C10.4878049,21.590625 10.4878049,22.2270833 10.097561,22.5697917 Z" id="Shape" fill="#191F34"></path>
                    <path d="M10.9268293,33.5854167 L3.07317073,33.5854167 C1.6097561,33.5854167 0.43902439,34.7604167 0.43902439,36.2291667 L0.43902439,44.1114583 C0.43902439,45.5802083 1.6097561,46.7552083 3.07317073,46.7552083 L10.9268293,46.7552083 C12.3902439,46.7552083 13.5609756,45.5802083 13.5609756,44.1114583 L13.5609756,36.2291667 C13.5609756,34.7604167 12.3902439,33.5854167 10.9268293,33.5854167 Z M10.097561,39.2645833 L6.87804878,42.4958333 C6.68292683,42.6916667 6.43902439,42.7895833 6.19512195,42.7895833 C5.95121951,42.7895833 5.70731707,42.6916667 5.51219512,42.4958333 L3.90243902,40.8802083 C3.51219512,40.4885417 3.51219512,39.8520833 3.90243902,39.4604167 C4.29268293,39.06875 4.92682927,39.06875 5.31707317,39.4604167 L6.24390244,40.390625 L8.73170732,37.89375 C9.12195122,37.5020833 9.75609756,37.5020833 10.1463415,37.89375 C10.4878049,38.2364583 10.4878049,38.8729167 10.097561,39.2645833 Z" id="Shape" fill="#8FA7FF"></path>
                    <path d="M18.0487805,5.38541667 L38.1463415,5.38541667 C38.9268293,5.38541667 39.5609756,4.74895833 39.5609756,3.965625 C39.5609756,3.18229167 38.9268293,2.54583333 38.1463415,2.54583333 L18.0487805,2.54583333 C17.2682927,2.54583333 16.6341463,3.18229167 16.6341463,3.965625 C16.6341463,4.74895833 17.2682927,5.38541667 18.0487805,5.38541667 Z" id="Path" fill="#191F34"></path>
                    <path d="M18.0487805,11.1135417 L30.7317073,11.1135417 C31.5121951,11.1135417 32.1463415,10.4770833 32.1463415,9.69375 C32.1463415,8.91041667 31.5121951,8.27395833 30.7317073,8.27395833 L18.0487805,8.27395833 C17.2682927,8.27395833 16.6341463,8.91041667 16.6341463,9.69375 C16.6341463,10.4770833 17.2682927,11.1135417 18.0487805,11.1135417 Z" id="Path" fill="#191F34"></path>
                    <path d="M38.1463415,19.240625 L18.0487805,19.240625 C17.2682927,19.240625 16.6341463,19.8770833 16.6341463,20.6604167 C16.6341463,21.44375 17.2682927,22.0802083 18.0487805,22.0802083 L38.1463415,22.0802083 C38.9268293,22.0802083 39.5609756,21.44375 39.5609756,20.6604167 C39.5609756,19.8770833 38.9268293,19.240625 38.1463415,19.240625 Z" id="Path" fill="#191F34"></path>
                    <path d="M18.0487805,27.759375 L30.7317073,27.759375 C31.5121951,27.759375 32.1463415,27.1229167 32.1463415,26.3395833 C32.1463415,25.55625 31.5121951,24.9197917 30.7317073,24.9197917 L18.0487805,24.9197917 C17.2682927,24.9197917 16.6341463,25.55625 16.6341463,26.3395833 C16.6341463,27.1229167 17.2682927,27.759375 18.0487805,27.759375 Z" id="Path" fill="#191F34"></path>
                    <path d="M38.1463415,35.8864583 L18.0487805,35.8864583 C17.2682927,35.8864583 16.6341463,36.5229167 16.6341463,37.30625 C16.6341463,38.0895833 17.2682927,38.7260417 18.0487805,38.7260417 L38.1463415,38.7260417 C38.9268293,38.7260417 39.5609756,38.0895833 39.5609756,37.30625 C39.5609756,36.5229167 38.9268293,35.8864583 38.1463415,35.8864583 Z" id="Path" fill="#8FA7FF"></path>
                    <path d="M30.7317073,41.6145833 L18.0487805,41.6145833 C17.2682927,41.6145833 16.6341463,42.2510417 16.6341463,43.034375 C16.6341463,43.8177083 17.2682927,44.4541667 18.0487805,44.4541667 L30.7317073,44.4541667 C31.5121951,44.4541667 32.1463415,43.8177083 32.1463415,43.034375 C32.1463415,42.2510417 31.5121951,41.6145833 30.7317073,41.6145833 Z" id="Path" fill="#8FA7FF"></path>
                </g>
            </g>
        </g>
    </g>
</svg>