<?xml version="1.0" encoding="UTF-8"?>
<svg width="78px" height="79px" viewBox="0 0 78 79" version="1.1" xmlns="http://www.w3.org/2000/svg" xmlns:xlink="http://www.w3.org/1999/xlink">
    <!-- Generator: Sketch 54.1 (76490) - https://sketchapp.com -->
    <title>link</title>
    <desc>Created with Sketch.</desc>
    <g id="SDK" stroke="none" stroke-width="1" fill="none" fill-rule="evenodd">
        <g id="Desktop-HD-Copy-18" transform="translate(-1271.000000, -233.000000)" fill-rule="nonzero">
            <g id="link" transform="translate(1271.000000, 233.000000)">
                <path d="M50.1428571,30.2142857 C49.1171854,30.2142857 48.2857143,29.3828145 48.2857143,28.3571429 C48.2857143,27.3314712 49.1171854,26.5 50.1428571,26.5 L65,26.5 C72.1802432,26.5 78,32.3197569 78,39.5 C78,46.6802432 72.1802432,52.5 65,52.5 L50.1428571,52.5 C49.1171854,52.5 48.2857143,51.6685289 48.2857143,50.6428571 C48.2857143,49.6171854 49.1171854,48.7857143 50.1428571,48.7857143 L65,48.7857143 C70.1288997,48.7857143 74.2857143,44.6288997 74.2857143,39.5 C74.2857143,34.3711003 70.1288997,30.2142857 65,30.2142857 L50.1428571,30.2142857 Z M27.8571429,26.5 C28.8828145,26.5 29.7142857,27.3314712 29.7142857,28.3571429 C29.7142857,29.3828145 28.8828145,30.2142857 27.8571429,30.2142857 L13,30.2142857 C7.87110023,30.2142857 3.71428571,34.3711003 3.71428571,39.5 C3.71428571,44.6288997 7.87110023,48.7857143 13,48.7857143 L27.8571429,48.7857143 C28.8828145,48.7857143 29.7142857,49.6171854 29.7142857,50.6428571 C29.7142857,51.6685289 28.8828145,52.5 27.8571429,52.5 L13,52.5 C5.81975691,52.5 0,46.6802432 0,39.5 C0,32.3197569 5.81975691,26.5 13,26.5 L27.8571429,26.5 Z M40.8571429,17.2142857 C40.8571429,18.2399574 40.0256718,19.0714286 39,19.0714286 C37.9743282,19.0714286 37.1428571,18.2399574 37.1428571,17.2142857 L37.1428571,2.35714286 C37.1428571,1.3314712 37.9743282,0.5 39,0.5 C40.0256718,0.5 40.8571429,1.3314712 40.8571429,2.35714286 L40.8571429,17.2142857 Z M56.2582302,4.75823027 C56.9834898,4.03297085 58.1593673,4.03297085 58.8846269,4.75823027 C59.6098861,5.48348968 59.6098861,6.65936746 58.8846269,7.38462688 L47.7417698,18.527484 C47.0165102,19.2527434 45.8406327,19.2527434 45.1153731,18.527484 C44.3901139,17.8022246 44.3901139,16.6263468 45.1153731,15.9010874 L56.2582302,4.75823027 Z M32.8846269,15.9010874 C33.6098861,16.6263468 33.6098861,17.8022246 32.8846269,18.527484 C32.1593675,19.2527434 30.9834897,19.2527434 30.2582303,18.527484 L19.1153731,7.38462688 C18.3901137,6.65936746 18.3901137,5.48348968 19.1153731,4.75823027 C19.8406325,4.03297085 21.0165103,4.03297085 21.7417697,4.75823027 L32.8846269,15.9010874 Z M40.8571429,76.6428571 C40.8571429,77.6685289 40.0256718,78.5 39,78.5 C37.9743282,78.5 37.1428571,77.6685289 37.1428571,76.6428571 L37.1428571,61.7857143 C37.1428571,60.7600425 37.9743282,59.9285714 39,59.9285714 C40.0256718,59.9285714 40.8571429,60.7600425 40.8571429,61.7857143 L40.8571429,76.6428571 Z M30.2582303,60.4725159 C30.9834897,59.7472567 32.1593675,59.7472567 32.8846269,60.4725159 C33.6098861,61.1977755 33.6098861,62.373653 32.8846269,63.0989126 L21.7417697,74.2417698 C21.0165103,74.967029 19.8406325,74.967029 19.1153731,74.2417698 C18.3901137,73.5165102 18.3901137,72.3406327 19.1153731,71.6153731 L30.2582303,60.4725159 Z M58.8846269,71.6153731 C59.6098861,72.3406327 59.6098861,73.5165102 58.8846269,74.2417698 C58.1593673,74.967029 56.9834898,74.967029 56.2582302,74.2417698 L45.1153731,63.0989126 C44.3901139,62.373653 44.3901139,61.1977755 45.1153731,60.4725159 C45.8406327,59.7472567 47.0165102,59.7472567 47.7417698,60.4725159 L58.8846269,71.6153731 Z" id="Shape" fill="#191F34"></path>
                <path d="M53.8571429,37.6428571 C54.8828146,37.6428571 55.7142857,38.4743282 55.7142857,39.5 C55.7142857,40.5256718 54.8828146,41.3571429 53.8571429,41.3571429 L24.1428571,41.3571429 C23.1171855,41.3571429 22.2857143,40.5256718 22.2857143,39.5 C22.2857143,38.4743282 23.1171855,37.6428571 24.1428571,37.6428571 L53.8571429,37.6428571 Z" id="Path" fill="#8FA7FF"></path>
            </g>
        </g>
    </g>
</svg>