<?xml version="1.0" encoding="UTF-8"?>
<svg width="23px" height="23px" viewBox="0 0 23 23" version="1.1" xmlns="http://www.w3.org/2000/svg" xmlns:xlink="http://www.w3.org/1999/xlink">
    <!-- Generator: Sketch 54.1 (76490) - https://sketchapp.com -->
    <g id="SDK" stroke="none" stroke-width="1" fill="none" fill-rule="evenodd">
        <g id="Desktop-HD-Copy-27" transform="translate(-682.000000, -657.000000)" fill="#FFFFFF">
            <g id="Group" transform="translate(634.000000, 655.900000)">
                <g id="Group-2" transform="translate(47.702411, -0.000000)">
                    <path d="M5.28494054,4 L19.0950599,4 C19.804713,4 20.3800005,4.57528748 20.3800005,5.28494054 L20.3800005,19.0950599 C20.3800005,19.804713 19.804713,20.3800005 19.0950599,20.3800005 L5.28494054,20.3800005 C4.57528748,20.3800005 4,19.804713 4,19.0950599 L4,5.28494054 C4,4.57528748 4.57528748,4 5.28494054,4 Z M7.74194061,6.45700007 C7.03228755,6.45700007 6.45700007,7.03228755 6.45700007,7.74194061 L6.45700007,16.6380599 C6.45700007,17.3477129 7.03228755,17.9230004 7.74194061,17.9230004 L16.6380599,17.9230004 C17.3477129,17.9230004 17.9230004,17.3477129 17.9230004,16.6380599 L17.9230004,7.74194061 C17.9230004,7.03228755 17.3477129,6.45700007 16.6380599,6.45700007 L7.74194061,6.45700007 Z" id="Combined-Shape-Copy-4" transform="translate(12.190000, 12.190000) rotate(-315.000000) translate(-12.190000, -12.190000) "></path>
                    <rect id="Combined-Shape" opacity="0.491024926" transform="translate(12.190000, 12.190000) rotate(-315.000000) translate(-12.190000, -12.190000) " x="8.68000013" y="8.68000013" width="7.0200002" height="7.0200002" rx="1.28494054"></rect>
                </g>
            </g>
        </g>
    </g>
</svg>
