<?xml version="1.0" encoding="UTF-8"?>
<svg width="178px" height="46px" viewBox="0 0 178 46" version="1.1" xmlns="http://www.w3.org/2000/svg" xmlns:xlink="http://www.w3.org/1999/xlink">
    <!-- Generator: Sketch 52.4 (67378) - http://www.bohemiancoding.com/sketch -->
    <title>Group 2</title>
    <desc>Created with Sketch.</desc>
    <g id="AZTEC" stroke="none" stroke-width="1" fill="none" fill-rule="evenodd">
        <g id="Desktop-HD" transform="translate(-102.000000, -55.000000)">
            <g id="Group-2" transform="translate(99.000000, 52.000000)">
                <g id="Group" transform="translate(26.000000, 26.000000) rotate(-315.000000) translate(-26.000000, -26.000000) translate(8.000000, 8.000000)" stroke="#FFFFFF">
                    <path d="M6.00939586,6.44792295 L29.7979421,6.44792295 L29.7979421,0.157813056 L29.7979421,6.44792295 L35.9332725,6.44792295 L29.7979421,6.44792295 L29.7979421,30.1841867 L35.9332725,30.1841867 L29.7979421,30.1841867 L29.7979421,35.9895493 L29.7979421,30.1841867 L6.00939586,30.1841867 L6.00939586,6.44792295 L0.0226117195,6.44792295 L6.00939586,6.44792295 L6.00939586,30.1841867 L29.7979421,30.1841867 L29.7979421,6.44792295 L6.00939586,6.44792295 L6.00939586,0.0786921773 L6.00939586,6.44792295 Z M6.00939586,30.1841867 L0.0226117195,30.1841867 L6.00939586,30.1841867 L6.00939586,35.9895493 L6.00939586,30.1841867 Z" id="Shape" stroke-width="3.76000039" stroke-linecap="square"></path>
                    <rect id="Rectangle" stroke-width="2.72000028" fill="#FFFFFF" x="12.0087758" y="12.4792951" width="11.7910129" height="11.7591206"></rect>
                </g>
                <path d="M65.68,31.2 C65.68,26.92 70,24.88 80.4,23.96 C80.36,20.8 79.08,17.88 74.68,17.88 C71.8,17.88 69,19.36 67.4,20.48 L66.6,19.16 C68.12,18.08 71.48,16.32 74.88,16.32 C80.04,16.32 82.16,19.6 82.16,23.72 L82.16,36 L80.68,36 L80.48,33.12 L80.4,33.12 C78.16,34.88 75.2,36.48 72.36,36.48 C68.92,36.48 65.68,34.84 65.68,31.2 Z M67.48,31.12 C67.48,33.88 70.08,34.96 72.68,34.96 C75.12,34.96 77.68,33.76 80.4,31.48 L80.4,25.32 C70.64,26.2 67.48,28.04 67.48,31.12 Z M89.2912821,36 L89.2912821,35.04 L104.331282,18.32 L90.8912821,18.32 L90.8912821,16.8 L107.011282,16.8 L107.011282,17.72 L91.9712821,34.44 L107.451282,34.44 L107.451282,36 L89.2912821,36 Z M119.822564,28.8 L119.822564,18.32 L114.022564,18.32 L114.022564,16.96 L119.862564,16.8 L120.102564,11.24 L121.582564,11.24 L121.582564,16.8 L131.822564,16.8 L131.822564,18.32 L121.582564,18.32 L121.582564,28.96 C121.582564,32.68 122.662564,34.92 126.902564,34.92 C128.942564,34.92 130.542564,34.56 132.062564,33.92 L132.542564,35.28 C130.822564,36 128.502564,36.48 126.662564,36.48 C121.422564,36.48 119.822564,33.4 119.822564,28.8 Z M138.313846,26.44 C138.313846,20.16 143.033846,16.32 147.913846,16.32 C153.153846,16.32 156.513846,19.68 156.513846,25.2 C156.513846,25.68 156.513846,26.16 156.433846,26.64 L140.153846,26.64 C140.233846,31.48 143.593846,34.96 148.593846,34.96 C151.153846,34.96 153.193846,34.12 154.993846,32.88 L155.713846,34.24 C153.953846,35.36 151.793846,36.48 148.433846,36.48 C142.913846,36.48 138.313846,32.72 138.313846,26.44 Z M140.153846,25.2 L154.793846,25.2 C154.793846,20.36 152.073846,17.84 147.953846,17.84 C144.153846,17.84 140.713846,20.64 140.153846,25.2 Z M163.125128,26.44 C163.125128,20 167.845128,16.32 173.605128,16.32 C176.805128,16.32 178.925128,17.72 180.525128,19.24 L179.485128,20.44 C177.845128,18.92 176.005128,17.88 173.645128,17.88 C168.525128,17.88 165.005128,21.36 165.005128,26.44 C165.005128,31.48 168.445128,34.92 173.605128,34.92 C176.205128,34.92 178.365128,33.76 180.085128,32.16 L181.005128,33.4 C179.045128,35.24 176.525128,36.48 173.525128,36.48 C167.565128,36.48 163.125128,32.8 163.125128,26.44 Z" id="aztec" fill="#FFFFFF"></path>
            </g>
        </g>
    </g>
</svg>
