<?xml version="1.0" encoding="UTF-8"?>
<svg width="448px" height="430px" viewBox="0 0 448 430" version="1.1" xmlns="http://www.w3.org/2000/svg" xmlns:xlink="http://www.w3.org/1999/xlink">
    <!-- Generator: Sketch 54.1 (76490) - https://sketchapp.com -->
    <title>Group 20</title>
    <desc>Created with Sketch.</desc>
    <g id="Page-2" stroke="none" stroke-width="1" fill="none" fill-rule="evenodd">
        <g id="Artboard-Copy-22" transform="translate(-2035.000000, -868.000000)" fill="#FFFFFF">
            <g id="Group-18" transform="translate(2038.000000, 861.000000)">
                <g id="Group-20">
                    <g id="Group-19" transform="translate(78.000000, 0.000000)">
                        <path d="M60.0388725,43.4788732 L233.961128,43.4788732 C243.106963,43.4788732 250.521127,50.8930374 250.521127,60.0388725 L250.521127,233.961128 C250.521127,243.106963 243.106963,250.521127 233.961128,250.521127 L60.0388725,250.521127 C50.8930374,250.521127 43.4788732,243.106963 43.4788732,233.961128 L43.4788732,60.0388725 C43.4788732,50.8930374 50.8930374,43.4788732 60.0388725,43.4788732 Z M91.0952105,74.5352113 C81.9493755,74.5352113 74.5352113,81.9493755 74.5352113,91.0952105 L74.5352113,202.90479 C74.5352113,212.050625 81.9493755,219.464789 91.0952105,219.464789 L202.90479,219.464789 C212.050625,219.464789 219.464789,212.050625 219.464789,202.90479 L219.464789,91.0952105 C219.464789,81.9493755 212.050625,74.5352113 202.90479,74.5352113 L91.0952105,74.5352113 Z" id="Combined-Shape" transform="translate(147.000000, 147.000000) rotate(-315.000000) translate(-147.000000, -147.000000) "></path>
                        <rect id="Combined-Shape" opacity="0.874767485" transform="translate(147.000000, 147.000000) rotate(-315.000000) translate(-147.000000, -147.000000) " x="105.591549" y="105.591549" width="82.8169014" height="82.8169014" rx="16.5599992"></rect>
                    </g>
                </g>
            </g>
        </g>
    </g>
</svg>
