<?xml version="1.0" encoding="UTF-8"?>
<svg width="81px" height="84px" viewBox="0 0 81 84" version="1.1" xmlns="http://www.w3.org/2000/svg" xmlns:xlink="http://www.w3.org/1999/xlink">
    <!-- Generator: Sketch 54.1 (76490) - https://sketchapp.com -->
    <title>download (12)</title>
    <desc>Created with Sketch.</desc>
    <g id="SDK" stroke="none" stroke-width="1" fill="none" fill-rule="evenodd">
        <g id="Desktop-HD-Copy-34" transform="translate(-650.000000, -439.000000)" fill-rule="nonzero">
            <g id="download-(12)" transform="translate(651.000000, 440.000000)">
                <path d="M13.0012821,40.0752413 C12.9855507,40.3247656 13.1156381,40.5601194 13.3334589,40.6753319 L22.3996456,45.4877621 L25.2234506,60.6557584 C25.2718552,60.9151404 25.4739445,61.1166082 25.729279,61.1603519 C25.9882437,61.2040957 26.2405528,61.0802577 26.3700352,60.8516812 L31.4240834,51.8681906 L42.9643517,63.8114706 C43.0817329,63.9334602 43.2414681,64 43.4060439,64 C43.4447676,64 43.4834913,63.9963033 43.5216099,63.98891 C43.7249093,63.949479 43.8955356,63.8096222 43.9766134,63.6155478 L60.9545364,22.8716197 C60.9798353,22.8106249 60.9939029,22.7471656 60.9996888,22.6835523 C61.0009746,22.6696898 60.9978358,22.6561355 60.998214,22.642273 C60.9996132,22.5868232 60.9951887,22.5324515 60.9825581,22.47885 C60.9773394,22.45667 60.9689821,22.4361844 60.9613433,22.4144666 C60.9449689,22.3679503 60.9236028,22.3242065 60.8965264,22.2821571 C60.8888875,22.270297 60.8868077,22.2564345 60.8782991,22.2450365 C60.8723997,22.2370271 60.8635886,22.2331764 60.8573868,22.225629 C60.8482731,22.214231 60.8429032,22.2008307 60.8329198,22.1902028 C60.8050493,22.1603215 60.7716199,22.1390657 60.7394006,22.1159616 C60.7257111,22.1059498 60.7142528,22.0933196 60.6999205,22.08454 C60.6424022,22.0500379 60.5806863,22.0250854 60.5159452,22.0107609 C60.495411,22.0062941 60.4746499,22.0078343 60.4537377,22.0053699 C60.4077154,22.000133 60.3619958,21.9976686 60.3153307,22.0029055 C60.2897292,22.005832 60.2655646,22.0123012 60.2402279,22.0186162 C60.216971,22.0241612 60.1932224,22.0247773 60.1703815,22.0330948 L13.4060658,39.5238235 C13.1755388,39.6100788 13.0170136,39.8263332 13.0012821,40.0752413 Z M43.1979038,62.253946 L32.176208,50.8472974 L58.6453332,25.1823379 L43.1979038,62.253946 Z M30.8656149,50.3753576 C30.8379714,50.4021584 30.8243197,50.4365064 30.8026133,50.4668498 C30.7885457,50.4862573 30.7668392,50.4976553 30.7548893,50.518911 L26.128617,58.7421227 L23.6425478,45.3877983 L56.0505426,25.9558632 L30.8656149,50.3753576 Z M54.1602284,25.6248584 L22.9343276,44.3482678 L15.1486324,40.2163304 L54.1602284,25.6248584 Z" id="Shape" stroke="#8FA7FF" fill="#8FA7FF"></path>
                <path d="M46.7665942,5.01611829 C46.4314221,4.93802467 46.0938035,5.1512326 46.0161268,5.49273722 C45.9384501,5.83424183 46.1488501,6.17450681 46.4864687,6.25322018 C63.5251986,10.221119 75.425031,25.384294 75.425031,43.127037 C75.425031,49.2561454 73.9549834,55.2898061 71.1683302,60.6787296 L69.5845962,54.6904687 C69.4946869,54.3514432 69.152787,54.1518707 68.8176148,54.2417403 C68.483666,54.3322297 68.2854985,54.680552 68.3747962,55.0189576 L70.3601404,62.5258603 C70.3815474,62.6065881 70.4200799,62.6766244 70.4666401,62.7395331 C70.4744765,62.7503794 70.4854476,62.7582817 70.4940104,62.7686632 C70.5343014,62.8163871 70.5790267,62.8576032 70.6306328,62.8910719 C70.6406482,62.8977346 70.6462675,62.908271 70.6567798,62.9144689 C70.6825065,62.9294988 70.709915,62.9369363 70.7366355,62.9479376 C70.750206,62.9535158 70.7626679,62.9603335 70.7766589,62.9648269 C70.8403064,62.9860547 70.904986,63 70.9699333,63 C71.0377093,63 71.103574,62.985125 71.1674509,62.9635873 L78.5357705,60.9633684 C78.8697193,60.872879 79.0678868,60.5245567 78.9785891,60.1861511 C78.8892914,59.8471257 78.5467798,59.6475532 78.2116077,59.7374227 L72.2301162,61.3611189 C75.1422296,55.7671997 76.677645,49.4966241 76.677645,43.127037 C76.677645,24.789295 64.3778079,9.11727208 46.7665942,5.01611829 Z" id="Path" stroke="#191F34" fill="#191F34"></path>
                <path d="M0,43.0807697 C0,46.6329493 0.474445186,50.1512928 1.40995369,53.5392133 C1.48659479,53.8179 1.7365909,54 2.00909273,54 C2.06505296,54 2.12101312,53.9926175 2.17697335,53.9766223 C2.50847672,53.8831115 2.70190432,53.5355221 2.60944834,53.2008519 C1.70435296,49.9230526 1.24572266,46.5179065 1.24572266,43.0807697 C1.24572266,22.8089225 17.2116005,6.24751571 37.0917648,5.55864268 L33.6606672,10.0763827 C33.4508164,10.3526087 33.5025188,10.7481839 33.7750206,10.9598136 C33.8881576,11.0477875 34.0219755,11.0902366 34.1539685,11.0902366 C34.3413135,11.0902366 34.5256172,11.0053386 34.6484863,10.8441555 L38.8710482,5.28456999 C38.8910449,5.25811627 38.8973176,5.22704855 38.9126002,5.19874922 C38.9298596,5.16783527 38.9465108,5.13830554 38.958448,5.10431565 C38.9739207,5.05909829 38.9807256,5.01449609 38.9856678,4.96774067 C38.988595,4.94297879 39,4.92129285 39,4.89576197 C39,4.8822275 38.993233,4.87084626 38.9923967,4.85746562 C38.9896596,4.81747743 38.9794331,4.78041147 38.9692827,4.74165374 C38.9579919,4.69735915 38.9473092,4.65460257 38.9273126,4.61461438 C38.9148432,4.59000628 38.8975077,4.56924318 38.8817308,4.54632692 C38.8496449,4.49895633 38.8156583,4.45604597 38.7723195,4.41928756 C38.7660088,4.41390455 38.7632336,4.40621448 38.7566948,4.40113908 L33.2598219,0.13040288 C32.9861036,-0.0824571909 32.5962069,-0.0283193655 32.3863562,0.246060993 C32.1765054,0.522286967 32.2282078,0.917862222 32.5007096,1.1294919 L36.5964107,4.31147336 C16.2587944,5.25596298 0,22.2818477 0,43.0807697 Z" id="Path" stroke="#191F34" fill="#191F34"></path>
                <path d="M13.6430627,64.7481814 C13.7322588,64.4181014 13.5343167,64.0783487 13.2007474,63.9900855 L5.77669314,62.0210918 C5.61662876,61.9787738 5.4455676,62.0005374 5.30199841,62.0827551 C5.30039469,62.0836619 5.29951648,62.0853244 5.29791277,62.0862312 C5.29726365,62.0866846 5.29653815,62.0865335 5.29588903,62.0869869 C5.13929933,62.1766103 5.04055734,62.3238163 5.00325229,62.4856824 L3.02138657,69.8051762 C2.93219041,70.1352562 3.13013257,70.4750089 3.46370188,70.5632721 C3.51807491,70.5777811 3.57244788,70.5844311 3.62620996,70.5844311 C3.90235157,70.5844311 4.15527767,70.4024639 4.2298115,70.1255836 L5.83778638,64.1870152 C12.8721802,75.2102363 25.2332961,82 38.4542617,82 C48.8083492,82 58.5264556,77.9943039 65.8185484,70.7204531 C66.0616996,70.4780316 66.0604778,70.0856838 65.8148828,69.8450761 C65.5698987,69.6050728 65.1740143,69.6056773 64.9302522,69.8487033 C57.8745904,76.8861782 48.4723362,80.7618977 38.4542617,80.7618977 C25.6977959,80.7618977 13.7700603,74.2278553 6.9535787,63.614816 L12.8769531,65.1858699 C13.2111333,65.2753421 13.5538665,65.0788659 13.6430627,64.7481814 Z" id="Path" stroke="#191F34" fill="#191F34"></path>
            </g>
        </g>
    </g>
</svg>