<?xml version="1.0" encoding="UTF-8"?>
<svg width="78px" height="102px" viewBox="0 0 78 102" version="1.1" xmlns="http://www.w3.org/2000/svg" xmlns:xlink="http://www.w3.org/1999/xlink">
    <!-- Generator: Sketch 54.1 (76490) - https://sketchapp.com -->
    <title>download (14)</title>
    <desc>Created with Sketch.</desc>
    <g id="SDK" stroke="none" stroke-width="1" fill="none" fill-rule="evenodd">
        <g id="Desktop-HD-Copy-34" transform="translate(-599.000000, -498.000000)" fill-rule="nonzero">
            <g id="download-(14)" transform="translate(599.000000, 498.000000)">
                <path d="M60.4000436,0.00046600624 C60.2851478,0.000502057416 60.17048,0.0107551951 60.0573792,0.0311056986 L0,0.0311056986 L0,102 L20.4683953,102 L48.5895962,102 L60.5827932,102 L77.9748394,102 L77.9748394,17.9859654 C78.0083869,17.777954 78.0083869,17.565863 77.9748394,17.3578515 L77.9748394,16.8676165 L77.6474075,16.5458999 C77.5271811,16.3754929 77.3806535,16.2255096 77.2133683,16.1016246 L61.999136,0.797098008 C61.879972,0.632729702 61.7361096,0.488013531 61.5727111,0.368142315 L61.237661,0.0311056986 L60.7883934,0.0311056986 C60.6602849,0.00787601732 60.5301858,-0.00238843852 60.4000436,0.00046600624 Z M3.89874197,3.95298632 L58.4811296,3.95298632 L58.4811296,19.6405088 L74.0760974,19.6405088 L74.0760974,98.0781194 L60.5827932,98.0781194 L48.5895962,98.0781194 L20.4683953,98.0781194 L3.89874197,98.0781194 L3.89874197,3.95298632 Z M62.3798715,6.72587868 L71.319566,15.7186282 L62.3798715,15.7186282 L62.3798715,6.72587868 Z M23.3924518,11.7967476 L23.3924518,15.7186282 L50.6836456,15.7186282 L50.6836456,11.7967476 L23.3924518,11.7967476 Z M38.9874197,78.4687162 C35.7806849,78.4687162 33.139334,81.1257943 33.1393068,84.3515372 C33.139334,87.577284 35.7806849,90.2343581 38.9874197,90.2343581 C42.1941545,90.2343581 44.8355054,87.577284 44.8355327,84.3515372 C44.8355054,81.1257943 42.1941545,78.4687162 38.9874197,78.4687162 Z M11.6962259,82.3905969 L11.6962259,86.3124775 L27.2911938,86.3124775 L27.2911938,82.3905969 L11.6962259,82.3905969 Z M38.9874197,82.3905969 C40.0871301,82.3905969 40.9367829,83.2455708 40.9367907,84.3515372 C40.9367829,85.4578997 40.0871301,86.3124775 38.9874197,86.3124775 C37.8877094,86.3124775 37.0380565,85.4578997 37.0380487,84.3515372 C37.0380565,83.2455708 37.8877094,82.3905969 38.9874197,82.3905969 Z M50.6836456,82.3905969 L50.6836456,86.3124775 L66.2786135,86.3124775 L66.2786135,82.3905969 L50.6836456,82.3905969 Z" id="Shape" fill="#191F34"></path>
                <g id="Group-2" transform="translate(12.000000, 24.000000)" fill="#8FA7FF">
                    <polygon id="Path" points="1.42108547e-14 9.69050477e-07 1.42108547e-14 3.87620095 54.6875 3.87620095 54.6875 9.69050477e-07"></polygon>
                    <polygon id="Path" points="1.42108547e-14 7.75240288 1.42108547e-14 11.6286048 54.6875 11.6286048 54.6875 7.75240288"></polygon>
                    <polygon id="Path" points="6.75015599e-13 15.5048067 6.75015599e-13 19.3810086 15.8233633 19.3810086 18.1732188 19.3810086 27.34375 19.3810086 29.6401992 19.3810086 33.5464492 15.5048067 27.34375 15.5048067"></polygon>
                    <polygon id="Path" points="41.8930039 15.5048067 45.7992539 19.3810086 54.6875 19.3810086 54.6875 15.5048067"></polygon>
                    <polygon id="Path" points="36.3311758 18.2151208 23.9028945 30.5478037 18.3792109 25.06661 15.6173711 27.8072088 23.9028945 36.0289936 39.0930156 20.9557157"></polygon>
                    <polygon id="Path" points="1.99484873e-12 23.2572106 1.99484873e-12 27.1334125 9.41467188 27.1334125 8.71276953 26.4369094 11.9171133 23.2572106"></polygon>
                    <polygon id="Path" points="22.0794688 23.2572106 23.9028945 25.06661 25.7263203 23.2572106"></polygon>
                    <polygon id="Path" points="42.3049922 23.2572106 41.8624883 23.6963145 38.3987422 27.1334125 54.6875 27.1334125 54.6875 23.2572106"></polygon>
                    <polygon id="Path" points="1.99307237e-12 31.0096144 1.99307237e-12 34.8858163 17.2271719 34.8858163 13.3209219 31.0096144"></polygon>
                    <polygon id="Path" points="34.4924922 31.0096144 30.5786133 34.8858163 54.6875 34.8858163 54.6875 31.0096144"></polygon>
                    <polygon id="Path" points="7.10542736e-15 38.7620183 7.10542736e-15 42.6382202 39.0625 42.6382202 39.0625 38.7620183"></polygon>
                </g>
            </g>
        </g>
    </g>
</svg>